:SAMPLES-PER-SECOND 30
:FULLY-SPECIFIED
:DEGREES
253
root  -70.4871 40.3134 3.26456 -159.24 -81.7745 153.138
RightUpLeg  -7.1483 5.49282 -7.81332
RightLeg  19.8613 0.0822731 -0.351391
RightFoot  -11.1442 0.0448442 5.4924
RightToes  -4.65661e-009 0 -3.6325e-017
Spine  4.81635 1.44554 -0.413243
Spine1  6.73921 2.65774 -5.62209
HEad  -8.29834 1.06146 -4.1173
LeftShoulder1  0.318695 2.58067 -28.3839
LeftArm  4.641 -20.0291 -45.4176
LeftForeArm  21.7571 -23.4938 -3.92462
LeftHand  -0.0304558 5.73859 0.432299
RightShoulder  -0.269786 -4.32707 25.4751
RightArm  18.5651 6.2079 56.9166
RightForeArm  22.3226 47.8067 10.7283
RightHand  -0.21637 5.08915 -2.69795
LeftUpLeg  -5.58347 6.43148 -1.01143
LeftLeg  10.6395 0.806645 -1.47618
LeftFoot  1.74404 -0.469186 3.98754
LeftToes  9.86798e-010 -1.28139e-010 1.4132e-011
254
root  -70.6324 40.5598 3.30451 -159.87 -82.7083 153.779
RightUpLeg  -6.84202 5.6167 -6.44618
RightLeg  16.311 3.35682 0.550426
RightFoot  -3.22491 0.0220443 -1.00389
RightToes  -4.65661e-009 0 -3.6325e-017
Spine  4.36933 1.2342 1.40813
Spine1  7.14112 2.72514 -5.92742
HEad  -8.09698 0.567495 -4.13424
LeftShoulder1  0.342082 2.50621 -28.1448
LeftArm  3.76287 -20.8152 -45.491
LeftForeArm  22.9956 -27.1057 -4.57908
LeftHand  -0.0288673 5.13775 1.29669
RightShoulder  -0.262004 -4.30315 25.4523
RightArm  20.4261 7.31505 58.0371
RightForeArm  22.6816 47.343 10.5163
RightHand  -0.114851 5.03721 -1.58218
LeftUpLeg  -3.75916 6.18734 -0.66869
LeftLeg  7.32566 0.0791082 -1.61728
LeftFoot  3.09964 -0.558422 4.25656
LeftToes  9.86798e-010 -1.28139e-010 1.4132e-011
255
root  -70.7229 40.4228 3.17926 -155.443 -82.54 149.692
RightUpLeg  -7.47084 11.0015 -6.87932
RightLeg  18.2184 -2.62794 -1.12132
RightFoot  -7.13573 -0.172027 3.09544
RightToes  -4.65661e-009 0 -3.6325e-017
Spine  4.35448 1.53796 0.82529
Spine1  6.73817 3.09304 -6.71946
HEad  -7.74069 -0.0802785 -4.48799
LeftShoulder1  0.333307 2.53149 -28.1396
LeftArm  3.48899 -20.6059 -45.5698
LeftForeArm  24.3144 -30.3503 -5.26563
LeftHand  -0.0323968 4.5414 1.2513
RightShoulder  -0.277176 -4.35326 25.362
RightArm  22.3951 7.8609 58.8157
RightForeArm  21.9575 45.2809 9.77913
RightHand  -0.0721285 5.11824 -1.10231
LeftUpLeg  -4.75863 6.25622 -1.10002
LeftLeg  8.86888 -0.0495033 -1.61449
LeftFoot  2.06252 -0.466955 3.87081
LeftToes  9.86798e-010 -1.28139e-010 1.4132e-011
256
root  -70.7836 40.4974 3.14757 -153.935 -82.5409 148.567
RightUpLeg  -7.07629 8.99563 -7.25922
RightLeg  16.7034 -0.371242 -0.416602
RightFoot  -6.58293 -0.177135 3.20336
RightToes  -4.65661e-009 0 -3.6325e-017
Spine  3.91771 1.62215 1.46534
Spine1  6.93607 3.27866 -6.89121
HEad  -7.30436 -0.0707225 -5.10724
LeftShoulder1  0.248189 2.78722 -28.5087
LeftArm  3.81538 -19.4794 -45.4295
LeftForeArm  22.9391 -32.8039 -5.93743
LeftHand  -0.0402086 4.41892 1.91118
RightShoulder  -0.239475 -4.24356 24.9708
RightArm  24.4587 8.34631 59.6831
RightForeArm  20.0374 41.7568 8.6807
RightHand  -0.104119 5.51615 -1.42771
LeftUpLeg  -4.29249 6.00119 -1.25239
LeftLeg  7.29289 0.141971 -1.55704
LeftFoot  2.57726 -0.435 3.43384
LeftToes  9.86798e-010 -1.28139e-010 1.4132e-011
257
root  -70.8631 40.5743 3.12722 -154.76 -83.067 149.213
RightUpLeg  -5.94194 4.43961 -7.06175
RightLeg  15.1909 3.52719 0.378471
RightFoot  -5.74364 -0.182899 2.93315
RightToes  -4.65661e-009 0 -3.6325e-017
Spine  4.26517 1.44188 2.43263
Spine1  6.67058 3.101 -6.89047
HEad  -6.6824 -0.181617 -5.74047
LeftShoulder1  0.133787 3.122 -28.8386
LeftArm  4.15859 -16.7109 -45.7678
LeftForeArm  18.5504 -33.5877 -6.39406
LeftHand  -0.0658582 3.82811 3.64708
RightShoulder  -0.237305 -4.2352 24.9819
RightArm  26.8414 8.41723 59.8386
RightForeArm  17.096 37.4405 7.54018
RightHand  -0.0959702 5.24125 -1.34205
LeftUpLeg  -3.59514 5.84583 -1.0631
LeftLeg  6.49419 -0.184449 -1.2402
LeftFoot  2.82059 -0.426703 3.29656
LeftToes  9.86798e-010 -1.28139e-010 1.4132e-011
258
root  -70.9352 40.6344 3.0314 -155.793 -83.2221 150.082
RightUpLeg  -4.91024 0.710817 -6.84466
RightLeg  13.8116 6.88632 0.711061
RightFoot  -5.49443 -0.213034 3.44288
RightToes  -4.65661e-009 0 -3.6325e-017
Spine  4.62796 1.67276 3.47444
Spine1  6.24183 3.42869 -7.17404
HEad  -6.09782 -1.07708 -5.92524
LeftShoulder1  0.136113 3.12042 -29.4547
LeftArm  4.5362 -13.237 -45.9812
LeftForeArm  15.3274 -33.2472 -6.49595
LeftHand  -0.061863 4.1463 3.85297
RightShoulder  -0.351846 -4.57834 25.7218
RightArm  29.0339 7.92088 59.1702
RightForeArm  15.0572 32.5029 6.3194
RightHand  -0.0225912 4.58338 -0.563598
LeftUpLeg  -2.83503 5.84923 -0.784247
LeftLeg  5.61732 -0.43955 -1.09245
LeftFoot  3.0226 -0.405354 3.07081
LeftToes  9.86798e-010 -1.28139e-010 1.4132e-011
259
root  -70.9926 40.7131 2.8698 -157.067 -83.5754 152.041
RightUpLeg  -4.67714 -1.95755 -6.15181
RightLeg  12.2554 8.96744 0.473549
RightFoot  -4.88028 -0.207733 3.0919
RightToes  -4.65661e-009 0 -3.6325e-017
Spine  3.79711 1.73515 3.7944
Spine1  6.19656 3.34891 -6.50255
HEad  -6.0985 -2.09016 -5.47919
LeftShoulder1  0.0351363 3.40816 -30.5356
LeftArm  6.67782 -9.72154 -45.2469
LeftForeArm  14.1632 -31.6886 -6.16748
LeftHand  -0.0182406 5.701 3.39189
RightShoulder  -0.405716 -4.70758 26.6695
RightArm  31.8608 7.3657 58.328
RightForeArm  11.2302 26.8578 5.11135
RightHand  -0.0268007 5.6071 -0.602353
LeftUpLeg  -3.14859 6.01645 -0.151918
LeftLeg  5.00834 -0.940158 -1.23666
LeftFoot  3.39432 -0.382903 2.80143
LeftToes  9.86798e-010 -1.28139e-010 1.4132e-011
260
root  -71.093 40.7821 2.72766 -160.923 -83.8572 155.351
RightUpLeg  -3.09723 -3.46225 -5.38457
RightLeg  10.7495 10.2803 0.108203
RightFoot  -4.41816 -0.199225 2.79339
RightToes  -4.65661e-009 0 -3.6325e-017
Spine  4.18616 1.84933 4.99848
Spine1  6.26902 3.57958 -6.78612
HEad  -6.20807 -3.55813 -4.56996
LeftShoulder1  -0.0345683 3.59487 -31.7197
LeftArm  10.6089 -6.22339 -44.2208
LeftForeArm  14.0544 -29.1472 -5.54787
LeftHand  -0.0163851 5.68083 4.09434
RightShoulder  -0.541888 -5.07888 27.6408
RightArm  32.2477 6.5766 57.2343
RightForeArm  10.1243 20.5784 5.0403
RightHand  -0.00661752 4.38134 -0.360521
LeftUpLeg  -1.9942 6.12568 0.441989
LeftLeg  4.29905 -1.25373 -0.861805
LeftFoot  3.4801 -0.305133 2.18345
LeftToes  9.86798e-010 -1.28139e-010 1.4132e-011
261
root  -71.1127 40.8032 2.50868 -160.814 -84.0725 155.682
RightUpLeg  -3.23466 -3.80989 -4.86643
RightLeg  10.2886 10.3524 -0.0538505
RightFoot  -4.34238 -0.187657 2.5815
RightToes  -4.65661e-009 0 -3.6325e-017
Spine  3.84241 1.7347 4.87115
Spine1  6.16147 3.33341 -6.2897
HEad  -6.48627 -2.50321 -4.37578
LeftShoulder1  -0.100254 3.76364 -32.5506
LeftArm  14.4904 -1.95614 -43.1996
LeftForeArm  15.6399 -25.9661 -4.65044
LeftHand  -0.00303794 6.56018 2.9509
RightShoulder  -0.536754 -5.05061 27.8632
RightArm  24.1235 6.02815 56.519
RightForeArm  16.7777 12.7235 7.92481
RightHand  0.00604021 3.62779 -0.178876
LeftUpLeg  -2.40873 5.97558 0.726789
LeftLeg  4.20548 -1.39226 -0.62636
LeftFoot  3.62513 -0.289642 2.0371
LeftToes  9.86798e-010 -1.28139e-010 1.4132e-011
262
root  -71.062 40.7947 2.27774 -160.923 -83.9637 155.858
RightUpLeg  -3.50354 -3.53551 -4.46966
RightLeg  10.518 10.1804 -0.0259827
RightFoot  -4.19647 -0.152335 1.9958
RightToes  -4.65661e-009 0 -3.6325e-017
Spine  4.30396 1.74005 5.59328
Spine1  6.03056 3.58307 -7.16316
HEad  -7.05461 -2.83162 -3.56245
LeftShoulder1  -0.0951504 3.74692 -32.9607
LeftArm  15.8697 1.84606 -42.4768
LeftForeArm  18.5143 -21.0444 -4.93757
LeftHand  -0.0168919 7.3728 1.29068
RightShoulder  -0.676751 -5.40973 28.8234
RightArm  17.1482 5.48725 54.984
RightForeArm  21.7686 6.21007 8.93885
RightHand  0.00555618 2.50464 -0.125543
LeftUpLeg  -2.59815 6.09521 1.08095
LeftLeg  4.35839 -1.44882 -0.628869
LeftFoot  3.66791 -0.245957 1.69892
LeftToes  9.86798e-010 -1.28139e-010 1.4132e-011
263
root  -70.9871 40.798 2.04714 -156.598 -84.9697 151.985
RightUpLeg  -3.93307 -4.427 -4.13444
RightLeg  10.5269 9.94468 0.0870667
RightFoot  -3.7511 -0.108406 1.23718
RightToes  -4.65661e-009 0 -3.6325e-017
Spine  4.36564 1.21939 5.48277
Spine1  5.96303 2.92676 -6.55537
HEad  -8.23122 -3.31971 -3.04504
LeftShoulder1  -0.15542 3.89375 -33.726
LeftArm  8.15214 4.28128 -41.0661
LeftForeArm  28.7741 -12.6743 -9.07608
LeftHand  -0.0346712 8.04325 0.268854
RightShoulder  -0.713948 -5.49324 29.2156
RightArm  15.5723 4.36982 53.3491
RightForeArm  24.0164 2.44659 8.47508
RightHand  0.02525 0.94141 0.407679
LeftUpLeg  -3.33011 5.79651 1.27006
LeftLeg  4.32577 -2.28102 -0.471
LeftFoot  3.97537 -0.21379 1.41037
LeftToes  9.86798e-010 -1.28139e-010 1.4132e-011
264
root  -70.8609 40.7534 1.84719 -148.25 -85.9011 144.141
RightUpLeg  -4.5865 -5.94102 -4.27103
RightLeg  10.7322 10.2103 0.64223
RightFoot  -3.93453 -0.139906 1.68879
RightToes  -4.65661e-009 0 -3.6325e-017
Spine  4.65453 0.845181 5.72796
Spine1  5.93682 2.52958 -6.36418
HEad  -9.49442 -4.60884 -2.65
LeftShoulder1  -0.171373 3.92792 -34.2793
LeftArm  -1.47421 6.3834 -40.0515
LeftForeArm  39.5175 -3.69415 -10.6027
LeftHand  -0.0659994 8.31301 -0.517069
RightShoulder  -0.742109 -5.5765 29.1369
RightArm  14.3633 2.1336 51.4009
RightForeArm  26.2356 1.66193 7.87124
RightHand  0.0701062 0.197757 1.42863
LeftUpLeg  -4.57432 5.25612 1.1757
LeftLeg  4.97548 -2.95359 -0.242244
LeftFoot  4.04453 -0.165244 1.04163
LeftToes  9.86798e-010 -1.28139e-010 1.4132e-011
